# xmcd
#
# Track frame offsets:
#	150
#	12465
#	24477
#	35982
#	49869
#	64934
#	82292
#	96899
#	107538
#	118711
#	129987
#	142367
#	155973
#	173508
#	184219
#	196180
#	212504
#
# Disc length: 3026 seconds
#
# Revision: 0
# Processed by: cddbd v1.5.2PL0 Copyright (c) Steve Scherf et al.
# Submitted via: dBpowerAMP V4.0
#
DISCID=fc0bd011
DTITLE=Lynn Anderson - " 2
DYEAR=1900
DGENRE=Country
TTITLE0=Stand By Your Man
TTITLE1=How Can I Unlove You
TTITLE2=You´re My Man
TTITLE3=Cry
TTITLE4=Could I Have This Dance
TTITLE5=Midnight TrainTo Georgia
TTITLE6=Gone At Last
TTITLE7=Silver Threads And Golden Needles
TTITLE8=Someday Soon
TTITLE9=That´s A No, No
TTITLE10=I´ve Never Loved Anyone More
TTITLE11=Talking In Your Sleep
TTITLE12=The Worst Is To Come
TTITLE13=Lie A Little
TTITLE14=Rodeo Cowboy
TTITLE15=When I Dream
TTITLE16=Sing Me A Sad Song
EXTD=# 2 out of tree
EXTT0=
EXTT1=
EXTT2=
EXTT3=
EXTT4=
EXTT5=
EXTT6=
EXTT7=
EXTT8=
EXTT9=
EXTT10=
EXTT11=
EXTT12=
EXTT13=
EXTT14=
EXTT15=
EXTT16=
PLAYORDER=
